<?xml version="1.0" encoding="utf-8"?>
<!-- Generator: Adobe Illustrator 17.0.0, SVG Export Plug-In . SVG Version: 6.00 Build 0)  -->
<!DOCTYPE svg PUBLIC "-//W3C//DTD SVG 1.1//EN" "http://www.w3.org/Graphics/SVG/1.1/DTD/svg11.dtd">
<svg version="1.1" id="svg1961" xmlns:svg="http://www.w3.org/2000/svg"
	 xmlns="http://www.w3.org/2000/svg" xmlns:xlink="http://www.w3.org/1999/xlink" x="0px" y="0px" width="600px" height="600px"
	 viewBox="0 0 600 600" enable-background="new 0 0 600 600" xml:space="preserve">
<g id="layer1" transform="translate(0.62188,-134.606)">
	<path id="path10" fill="#FFFEFE" stroke="#000000" stroke-width="1.1739" d="M591.953,434.747
		c1.144-146.88-110.502-272.483-255.982-290.302C168.296,123.45,18.637,248.238,7.311,416.578
		c-9.899,167.923,123.752,311.257,292.321,310.49C460.355,728.164,592.982,595.362,591.953,434.747"/>
	<path id="path14" d="M591.699,434.808l-0.404-18.169 M591.295,416.639l-4.441-36.742 M586.854,379.897l-9.286-35.531
		 M577.567,344.366l-13.324-34.319 M564.243,310.047l-17.765-31.897 M546.478,278.15l-21.803-29.878 M524.675,248.272
		l-25.033-26.648 M499.642,221.624l-28.263-23.418 M471.379,198.206l-31.089-19.784 M440.29,178.422l-33.108-15.747
		 M407.181,162.675l-35.127-11.305 M372.055,151.37l-36.338-6.864 M335.716,144.506l-36.338-2.423 M299.378,142.083l-36.742,2.423
		 M262.636,144.506l-35.934,6.864 M226.702,151.37l-35.127,11.305 M191.575,162.675l-33.108,15.747 M158.467,178.422l-31.089,19.784
		 M127.377,198.206l-28.263,23.418 M99.114,221.624l-25.033,26.648 M74.081,248.272L52.278,278.15 M52.278,278.15l-17.765,31.897
		 M34.513,310.047l-13.324,34.319 M21.189,344.366l-9.286,35.531 M11.903,379.897l-4.845,36.742 M7.057,416.639v36.338
		 M7.057,452.977l4.845,36.742 M11.903,489.719l9.286,35.531 M21.189,525.25l13.324,33.916 M34.513,559.165l17.765,32.301
		 M52.278,591.466l21.803,29.878 M74.081,621.344l25.033,26.648 M99.114,647.992l28.263,23.418 M127.377,671.41l31.089,19.784
		 M158.467,691.194l33.108,15.747 M191.575,706.941l35.127,11.305 M226.702,718.246l35.934,6.864 M262.636,725.11l36.742,2.019
		 M299.378,727.129l36.338-2.019 M335.716,725.11l36.338-6.864 M372.055,718.246l35.127-11.305 M407.181,706.941l33.108-15.747
		 M440.29,691.194l31.089-19.784 M471.379,671.41l28.263-23.418 M499.642,647.992l25.033-26.648 M524.675,621.344l21.803-29.878
		 M546.478,591.466l17.765-32.301 M564.243,559.165l13.324-33.916 M577.567,525.25l9.286-35.531 M586.854,489.719l4.441-36.742
		 M591.295,452.977l0.404-18.169"/>
	<path id="path16" fill="#CC0000" d="M577.256,434.711c0.458-140.07-104.324-258.116-243.062-275.767
		C175.517,138.811,31.524,257.368,22.089,417.35C11.713,577.413,139.266,712.786,299.471,712.497
		C452.434,712.948,577.882,587.789,577.256,434.711"/>
	<path id="path18" fill="#FFFEFE" d="M504.088,434.636c0.31-102.696-77.178-190.876-179.268-203.09
		c-116.726-15.02-222.787,72.737-229.738,190.17c-7.436,118.449,86.054,217.06,204.301,217.625
		C412.967,638.44,503.57,548.658,504.088,434.636"/>
	<rect x="25.878" y="336.364" fill="none" width="537" height="421.764"/>
	<g enable-background="new    ">
		<path d="M167.498,522.001v-132.08h-47.84v-17.68c6.24,0,12.305-0.476,18.2-1.431c5.891-0.95,11.221-2.729,15.99-5.329
			c4.765-2.601,8.795-6.151,12.09-10.66c3.291-4.506,5.545-10.226,6.76-17.16h16.9v184.339H167.498z"/>
	</g>
	<g enable-background="new    ">
		<path d="M286.058,522.001v-132.08h-47.84v-17.68c6.24,0,12.305-0.476,18.2-1.431c5.891-0.95,11.221-2.729,15.99-5.329
			c4.765-2.601,8.795-6.151,12.09-10.66c3.291-4.506,5.545-10.226,6.76-17.16h16.9v184.339H286.058z"/>
	</g>
	<g enable-background="new    ">
		<path d="M358.597,410.461c0.346-7.28,1.211-14.386,2.601-21.32c1.385-6.931,3.38-13.52,5.979-19.76
			c2.601-6.24,6.15-11.7,10.66-16.38c4.506-4.68,10.181-8.405,17.03-11.18c6.845-2.771,15.035-4.16,24.569-4.16
			c9.531,0,17.721,1.39,24.57,4.16c6.846,2.774,12.521,6.5,17.03,11.18c4.505,4.68,8.06,10.14,10.66,16.38
			c2.6,6.24,4.591,12.829,5.979,19.76c1.386,6.935,2.251,14.04,2.601,21.32c0.345,7.28,0.52,14.3,0.52,21.06
			c0,6.76-0.175,13.78-0.52,21.06c-0.35,7.28-1.215,14.39-2.601,21.32c-1.389,6.935-3.38,13.479-5.979,19.63
			c-2.601,6.154-6.155,11.569-10.66,16.25c-4.51,4.68-10.14,8.364-16.9,11.05c-6.76,2.686-14.994,4.03-24.7,4.03
			c-9.534,0-17.725-1.345-24.569-4.03c-6.85-2.686-12.524-6.37-17.03-11.05c-4.51-4.681-8.06-10.096-10.66-16.25
			c-2.6-6.151-4.595-12.695-5.979-19.63c-1.39-6.931-2.255-14.04-2.601-21.32c-0.349-7.28-0.52-14.3-0.52-21.06
			C358.077,424.761,358.248,417.741,358.597,410.461z M382.127,454.531c0.431,8.58,1.82,16.64,4.16,24.18s6.11,13.91,11.31,19.11
			c5.2,5.199,12.48,7.8,21.84,7.8c9.36,0,16.641-2.601,21.841-7.8c5.199-5.2,8.97-11.57,11.31-19.11s3.726-15.6,4.16-24.18
			c0.431-8.58,0.65-16.336,0.65-23.27c0-4.505-0.045-9.49-0.131-14.95c-0.089-5.46-0.52-10.92-1.3-16.38s-1.909-10.79-3.38-15.989
			c-1.475-5.2-3.64-9.75-6.5-13.65s-6.459-7.061-10.79-9.49c-4.335-2.425-9.62-3.64-15.86-3.64c-6.239,0-11.529,1.215-15.859,3.64
			c-4.335,2.43-7.93,5.59-10.79,9.49s-5.029,8.45-6.5,13.65c-1.475,5.199-2.601,10.529-3.38,15.989
			c-0.78,5.46-1.215,10.92-1.3,16.38c-0.09,5.46-0.131,10.445-0.131,14.95C381.477,438.195,381.693,445.951,382.127,454.531z"/>
	</g>
</g>
</svg>
