<?xml version="1.0" encoding="utf-8"?>
<!-- Generator: Adobe Illustrator 17.0.0, SVG Export Plug-In . SVG Version: 6.00 Build 0)  -->
<!DOCTYPE svg PUBLIC "-//W3C//DTD SVG 1.1//EN" "http://www.w3.org/Graphics/SVG/1.1/DTD/svg11.dtd">
<svg version="1.1" id="svg1961" xmlns:svg="http://www.w3.org/2000/svg"
	 xmlns="http://www.w3.org/2000/svg" xmlns:xlink="http://www.w3.org/1999/xlink" x="0px" y="0px" width="600px" height="600px"
	 viewBox="0 0 600 600" enable-background="new 0 0 600 600" xml:space="preserve">
<g id="layer1" transform="translate(0.62188,-134.606)">
	<path id="path10" fill="#FFFEFE" stroke="#000000" stroke-width="1.1739" d="M591.953,434.747
		c1.144-146.88-110.502-272.483-255.982-290.302C168.296,123.45,18.637,248.238,7.311,416.578
		c-9.899,167.923,123.752,311.257,292.321,310.49C460.355,728.164,592.982,595.362,591.953,434.747"/>
	<path id="path14" d="M591.699,434.808l-0.404-18.169 M591.295,416.639l-4.441-36.742 M586.854,379.897l-9.286-35.531
		 M577.567,344.366l-13.324-34.319 M564.243,310.047l-17.765-31.897 M546.478,278.15l-21.803-29.878 M524.675,248.272
		l-25.033-26.648 M499.642,221.624l-28.263-23.418 M471.379,198.206l-31.089-19.784 M440.29,178.422l-33.108-15.747
		 M407.181,162.675l-35.127-11.305 M372.055,151.37l-36.338-6.864 M335.716,144.506l-36.338-2.423 M299.378,142.083l-36.742,2.423
		 M262.636,144.506l-35.934,6.864 M226.702,151.37l-35.127,11.305 M191.575,162.675l-33.108,15.747 M158.467,178.422l-31.089,19.784
		 M127.377,198.206l-28.263,23.418 M99.114,221.624l-25.033,26.648 M74.081,248.272L52.278,278.15 M52.278,278.15l-17.765,31.897
		 M34.513,310.047l-13.324,34.319 M21.189,344.366l-9.286,35.531 M11.903,379.897l-4.845,36.742 M7.057,416.639v36.338
		 M7.057,452.977l4.845,36.742 M11.903,489.719l9.286,35.531 M21.189,525.25l13.324,33.916 M34.513,559.165l17.765,32.301
		 M52.278,591.466l21.803,29.878 M74.081,621.344l25.033,26.648 M99.114,647.992l28.263,23.418 M127.377,671.41l31.089,19.784
		 M158.467,691.194l33.108,15.747 M191.575,706.941l35.127,11.305 M226.702,718.246l35.934,6.864 M262.636,725.11l36.742,2.019
		 M299.378,727.129l36.338-2.019 M335.716,725.11l36.338-6.864 M372.055,718.246l35.127-11.305 M407.181,706.941l33.108-15.747
		 M440.29,691.194l31.089-19.784 M471.379,671.41l28.263-23.418 M499.642,647.992l25.033-26.648 M524.675,621.344l21.803-29.878
		 M546.478,591.466l17.765-32.301 M564.243,559.165l13.324-33.916 M577.567,525.25l9.286-35.531 M586.854,489.719l4.441-36.742
		 M591.295,452.977l0.404-18.169"/>
	<path id="path16" fill="#CC0000" d="M577.256,434.711c0.458-140.07-104.324-258.116-243.062-275.767
		C175.517,138.811,31.524,257.368,22.089,417.35C11.713,577.413,139.266,712.786,299.471,712.497
		C452.434,712.948,577.882,587.789,577.256,434.711"/>
	<path id="path18" fill="#FFFEFE" d="M504.088,434.636c0.31-102.696-77.178-190.876-179.268-203.09
		c-116.726-15.02-222.787,72.737-229.738,190.17c-7.436,118.449,86.054,217.06,204.301,217.625
		C412.967,638.44,503.57,548.658,504.088,434.636"/>
	<rect x="25.878" y="336.364" fill="none" width="537" height="421.764"/>
	<g enable-background="new    ">
		<path d="M160.998,522.001v-132.08h-47.84v-17.68c6.24,0,12.305-0.476,18.2-1.431c5.891-0.95,11.221-2.729,15.99-5.329
			c4.765-2.601,8.795-6.151,12.09-10.66c3.291-4.506,5.545-10.226,6.76-17.16h16.9v184.339H160.998z"/>
	</g>
	<g enable-background="new    ">
		<path d="M268.118,416.961c0.865,0,1.73,0,2.6,0h4.68c4.68,0,9.141-0.65,13.39-1.95c4.246-1.3,7.971-3.205,11.18-5.72
			c3.205-2.511,5.761-5.676,7.67-9.49c1.905-3.811,2.86-8.146,2.86-13c0-9.88-3.12-17.29-9.36-22.229
			c-6.24-4.94-14.04-7.41-23.399-7.41c-5.895,0-11.05,1.085-15.47,3.25c-4.42,2.169-8.06,5.07-10.92,8.71s-4.985,7.89-6.37,12.74
			c-1.389,4.854-2.08,9.969-2.08,15.34h-22.1c0.345-8.84,1.775-16.9,4.29-24.181c2.51-7.279,6.11-13.52,10.79-18.72
			c4.68-5.2,10.53-9.271,17.55-12.22c7.02-2.945,15.121-4.42,24.31-4.42c7.971,0,15.38,0.999,22.229,2.99
			c6.846,1.994,12.78,4.984,17.811,8.97c5.024,3.989,8.97,9.1,11.829,15.34c2.86,6.24,4.29,13.609,4.29,22.1
			c0,8.32-2.429,15.689-7.279,22.101c-4.854,6.414-10.92,11.27-18.2,14.56v0.521c11.266,2.429,19.63,7.715,25.09,15.859
			c5.46,8.149,8.19,17.77,8.19,28.86c0,9.189-1.69,17.29-5.07,24.31c-3.38,7.021-7.93,12.87-13.65,17.551
			c-5.72,4.68-12.439,8.189-20.149,10.529c-7.715,2.341-15.905,3.511-24.57,3.511c-9.36,0-17.855-1.301-25.48-3.9
			c-7.629-2.6-14.129-6.455-19.5-11.57c-5.375-5.11-9.49-11.395-12.35-18.85c-2.86-7.45-4.205-15.945-4.03-25.48h22.1
			c0.345,11.96,3.811,21.71,10.4,29.25c6.585,7.54,16.206,11.311,28.86,11.311c5.371,0,10.485-0.82,15.34-2.47
			c4.851-1.646,9.1-3.985,12.74-7.021c3.64-3.03,6.541-6.76,8.71-11.18c2.165-4.42,3.25-9.4,3.25-14.95
			c0-5.72-1.04-10.79-3.12-15.21s-4.854-8.146-8.32-11.18c-3.469-3.031-7.584-5.286-12.349-6.761
			c-4.77-1.471-9.925-2.209-15.47-2.209c-4.68,0-9.1,0.261-13.26,0.78v-18.719C266.644,416.876,267.424,416.961,268.118,416.961z"/>
		<path d="M365.098,410.461c0.346-7.28,1.211-14.386,2.601-21.32c1.385-6.931,3.38-13.52,5.979-19.76
			c2.601-6.24,6.15-11.7,10.66-16.38c4.506-4.68,10.181-8.405,17.03-11.18c6.845-2.771,15.035-4.16,24.569-4.16
			c9.531,0,17.721,1.39,24.57,4.16c6.846,2.774,12.521,6.5,17.03,11.18c4.505,4.68,8.06,10.14,10.66,16.38
			c2.6,6.24,4.591,12.829,5.979,19.76c1.386,6.935,2.251,14.04,2.601,21.32c0.345,7.28,0.52,14.3,0.52,21.06
			c0,6.76-0.175,13.78-0.52,21.06c-0.35,7.28-1.215,14.39-2.601,21.32c-1.389,6.935-3.38,13.479-5.979,19.63
			c-2.601,6.154-6.155,11.569-10.66,16.25c-4.51,4.68-10.14,8.364-16.9,11.05c-6.76,2.686-14.994,4.03-24.7,4.03
			c-9.534,0-17.725-1.345-24.569-4.03c-6.85-2.686-12.524-6.37-17.03-11.05c-4.51-4.681-8.06-10.096-10.66-16.25
			c-2.6-6.151-4.595-12.695-5.979-19.63c-1.39-6.931-2.255-14.04-2.601-21.32c-0.349-7.28-0.52-14.3-0.52-21.06
			C364.578,424.761,364.749,417.741,365.098,410.461z M388.628,454.531c0.431,8.58,1.82,16.64,4.16,24.18s6.11,13.91,11.31,19.11
			c5.2,5.199,12.48,7.8,21.84,7.8c9.36,0,16.641-2.601,21.841-7.8c5.199-5.2,8.97-11.57,11.31-19.11s3.726-15.6,4.16-24.18
			c0.431-8.58,0.65-16.336,0.65-23.27c0-4.505-0.045-9.49-0.131-14.95c-0.089-5.46-0.52-10.92-1.3-16.38s-1.909-10.79-3.38-15.989
			c-1.475-5.2-3.64-9.75-6.5-13.65s-6.459-7.061-10.79-9.49c-4.335-2.425-9.62-3.64-15.86-3.64c-6.239,0-11.529,1.215-15.859,3.64
			c-4.335,2.43-7.93,5.59-10.79,9.49s-5.029,8.45-6.5,13.65c-1.475,5.199-2.601,10.529-3.38,15.989
			c-0.78,5.46-1.215,10.92-1.3,16.38c-0.09,5.46-0.131,10.445-0.131,14.95C387.978,438.195,388.194,445.951,388.628,454.531z"/>
	</g>
</g>
</svg>
