<?xml version="1.0" encoding="utf-8"?>
<!-- Generator: Adobe Illustrator 17.0.0, SVG Export Plug-In . SVG Version: 6.00 Build 0)  -->
<!DOCTYPE svg PUBLIC "-//W3C//DTD SVG 1.1//EN" "http://www.w3.org/Graphics/SVG/1.1/DTD/svg11.dtd">
<svg version="1.1" id="svg1961" xmlns:svg="http://www.w3.org/2000/svg"
	 xmlns="http://www.w3.org/2000/svg" xmlns:xlink="http://www.w3.org/1999/xlink" x="0px" y="0px" width="600px" height="600px"
	 viewBox="0 0 600 600" enable-background="new 0 0 600 600" xml:space="preserve">
<g id="layer1" transform="translate(0.62188,-134.606)">
	<path id="path10" fill="#FFFEFE" stroke="#000000" stroke-width="1.1739" d="M591.953,434.747
		c1.144-146.88-110.502-272.483-255.982-290.302C168.296,123.45,18.637,248.238,7.311,416.578
		c-9.899,167.923,123.752,311.257,292.321,310.49C460.355,728.164,592.982,595.362,591.953,434.747"/>
	<path id="path14" d="M591.699,434.808l-0.404-18.169 M591.295,416.639l-4.441-36.742 M586.854,379.897l-9.286-35.531
		 M577.567,344.366l-13.324-34.319 M564.243,310.047l-17.765-31.897 M546.478,278.15l-21.803-29.878 M524.675,248.272
		l-25.033-26.648 M499.642,221.624l-28.263-23.418 M471.379,198.206l-31.089-19.784 M440.29,178.422l-33.108-15.747
		 M407.181,162.675l-35.127-11.305 M372.055,151.37l-36.338-6.864 M335.716,144.506l-36.338-2.423 M299.378,142.083l-36.742,2.423
		 M262.636,144.506l-35.934,6.864 M226.702,151.37l-35.127,11.305 M191.575,162.675l-33.108,15.747 M158.467,178.422l-31.089,19.784
		 M127.377,198.206l-28.263,23.418 M99.114,221.624l-25.033,26.648 M74.081,248.272L52.278,278.15 M52.278,278.15l-17.765,31.897
		 M34.513,310.047l-13.324,34.319 M21.189,344.366l-9.286,35.531 M11.903,379.897l-4.845,36.742 M7.057,416.639v36.338
		 M7.057,452.977l4.845,36.742 M11.903,489.719l9.286,35.531 M21.189,525.25l13.324,33.916 M34.513,559.165l17.765,32.301
		 M52.278,591.466l21.803,29.878 M74.081,621.344l25.033,26.648 M99.114,647.992l28.263,23.418 M127.377,671.41l31.089,19.784
		 M158.467,691.194l33.108,15.747 M191.575,706.941l35.127,11.305 M226.702,718.246l35.934,6.864 M262.636,725.11l36.742,2.019
		 M299.378,727.129l36.338-2.019 M335.716,725.11l36.338-6.864 M372.055,718.246l35.127-11.305 M407.181,706.941l33.108-15.747
		 M440.29,691.194l31.089-19.784 M471.379,671.41l28.263-23.418 M499.642,647.992l25.033-26.648 M524.675,621.344l21.803-29.878
		 M546.478,591.466l17.765-32.301 M564.243,559.165l13.324-33.916 M577.567,525.25l9.286-35.531 M586.854,489.719l4.441-36.742
		 M591.295,452.977l0.404-18.169"/>
	<path id="path16" fill="#CC0000" d="M577.256,434.711c0.458-140.07-104.324-258.116-243.062-275.767
		C175.517,138.811,31.524,257.368,22.089,417.35C11.713,577.413,139.266,712.786,299.471,712.497
		C452.434,712.948,577.882,587.789,577.256,434.711"/>
	<path id="path18" fill="#FFFEFE" d="M504.088,434.636c0.31-102.696-77.178-190.876-179.268-203.09
		c-116.726-15.02-222.787,72.737-229.738,190.17c-7.436,118.449,86.054,217.06,204.301,217.625
		C412.967,638.44,503.57,548.658,504.088,434.636"/>
	<rect x="30.878" y="305.364" fill="none" width="537" height="421.764"/>
	<g enable-background="new    ">
		<path d="M236.728,343.511c-7.235-6.765-16.8-10.15-28.7-10.15c-12.6,0-22.75,3.096-30.45,9.275c-7.7,6.186-13.71,14-18.025,23.45
			c-4.32,9.45-7.295,19.66-8.925,30.625c-1.635,10.97-2.57,21.235-2.8,30.8l0.7,0.7c7-11.43,15.69-19.715,26.075-24.851
			c10.379-5.129,22.34-7.699,35.875-7.699c11.9,0,22.575,2.045,32.025,6.125c9.45,4.085,17.379,9.745,23.8,16.975
			c6.415,7.235,11.375,15.75,14.875,25.549c3.5,9.8,5.25,20.421,5.25,31.851c0,9.1-1.4,18.55-4.2,28.35
			c-2.8,9.8-7.41,18.725-13.825,26.775c-6.42,8.05-14.935,14.699-25.55,19.949c-10.621,5.25-23.746,7.875-39.375,7.875
			c-18.436,0-33.25-3.734-44.45-11.199s-19.835-17.03-25.9-28.7c-6.07-11.665-10.095-24.5-12.075-38.5
			c-1.985-14-2.975-27.53-2.975-40.601c0-17.029,1.455-33.539,4.375-49.524c2.915-15.979,7.875-30.155,14.875-42.525
			c7-12.364,16.33-22.279,28-29.75c11.665-7.465,26.365-11.2,44.1-11.2c20.53,0,36.865,5.426,49,16.275
			c12.13,10.85,19.13,26.545,21,47.075h-29.75C248.278,359.261,243.958,350.281,236.728,343.511z M182.828,426.286
			c-6.3,2.92-11.67,6.885-16.1,11.899c-4.436,5.021-7.76,10.971-9.975,17.851c-2.22,6.885-3.325,14.175-3.325,21.875
			c0,7.699,1.165,14.935,3.5,21.699c2.33,6.771,5.655,12.601,9.975,17.5c4.315,4.9,9.68,8.811,16.1,11.726
			c6.415,2.92,13.705,4.375,21.875,4.375c8.165,0,15.34-1.455,21.525-4.375c6.18-2.915,11.375-6.94,15.575-12.075
			c4.2-5.13,7.404-11.025,9.625-17.675c2.215-6.65,3.325-13.59,3.325-20.825c0-7.7-0.995-14.99-2.975-21.875
			c-1.985-6.88-5.075-12.83-9.275-17.85c-4.2-5.015-9.45-9.04-15.75-12.075c-6.3-3.03-13.65-4.55-22.05-4.55
			S189.128,423.371,182.828,426.286z"/>
		<path d="M314.778,405.11c0.465-9.8,1.63-19.364,3.5-28.699c1.865-9.33,4.551-18.2,8.051-26.601c3.5-8.399,8.279-15.75,14.35-22.05
			c6.064-6.3,13.705-11.314,22.925-15.05c9.215-3.729,20.24-5.601,33.075-5.601c12.83,0,23.854,1.871,33.074,5.601
			c9.215,3.735,16.855,8.75,22.926,15.05c6.064,6.3,10.85,13.65,14.35,22.05c3.5,8.4,6.18,17.271,8.051,26.601
			c1.863,9.335,3.029,18.899,3.5,28.699c0.465,9.801,0.699,19.25,0.699,28.351c0,9.099-0.234,18.549-0.699,28.349
			c-0.471,9.8-1.637,19.37-3.5,28.7c-1.871,9.335-4.551,18.146-8.051,26.425c-3.5,8.285-8.285,15.575-14.35,21.875
			c-6.07,6.3-13.65,11.261-22.75,14.875c-9.1,3.615-20.186,5.425-33.25,5.425c-12.835,0-23.86-1.81-33.075-5.425
			c-9.22-3.614-16.86-8.575-22.925-14.875c-6.07-6.3-10.85-13.59-14.35-21.875c-3.5-8.279-6.186-17.09-8.051-26.425
			c-1.87-9.33-3.035-18.9-3.5-28.7c-0.47-9.8-0.699-19.25-0.699-28.349C314.078,424.36,314.308,414.911,314.778,405.11z
			 M346.453,464.435c0.579,11.55,2.449,22.4,5.6,32.55c3.15,10.15,8.225,18.726,15.225,25.726s16.801,10.5,29.4,10.5
			s22.4-3.5,29.4-10.5s12.074-15.575,15.225-25.726c3.15-10.149,5.014-21,5.6-32.55c0.58-11.55,0.875-21.989,0.875-31.325
			c0-6.064-0.061-12.774-0.176-20.125c-0.119-7.35-0.699-14.699-1.75-22.05c-1.049-7.35-2.57-14.524-4.549-21.524
			c-1.986-7-4.9-13.125-8.75-18.375s-8.695-9.505-14.525-12.775c-5.836-3.265-12.949-4.9-21.35-4.9s-15.521,1.636-21.35,4.9
			c-5.836,3.271-10.676,7.525-14.525,12.775s-6.771,11.375-8.75,18.375c-1.985,7-3.5,14.175-4.55,21.524
			c-1.05,7.351-1.636,14.7-1.75,22.05c-0.12,7.351-0.175,14.061-0.175,20.125C345.578,442.446,345.867,452.885,346.453,464.435z"/>
	</g>
</g>
</svg>
