<?xml version="1.0" encoding="utf-8"?>
<!-- Generator: Adobe Illustrator 17.0.0, SVG Export Plug-In . SVG Version: 6.00 Build 0)  -->
<!DOCTYPE svg PUBLIC "-//W3C//DTD SVG 1.1//EN" "http://www.w3.org/Graphics/SVG/1.1/DTD/svg11.dtd">
<svg version="1.1" id="svg1961" xmlns:svg="http://www.w3.org/2000/svg"
	 xmlns="http://www.w3.org/2000/svg" xmlns:xlink="http://www.w3.org/1999/xlink" x="0px" y="0px" width="600px" height="600px"
	 viewBox="0 0 600 600" enable-background="new 0 0 600 600" xml:space="preserve">
<g id="layer1" transform="translate(0.62188,-134.606)">
	<path id="path10" fill="#FFFEFE" stroke="#000000" stroke-width="1.1739" d="M591.953,434.747
		c1.144-146.88-110.502-272.483-255.982-290.302C168.296,123.45,18.637,248.238,7.311,416.578
		c-9.899,167.923,123.752,311.257,292.321,310.49C460.355,728.164,592.982,595.362,591.953,434.747"/>
	<path id="path14" d="M591.699,434.808l-0.404-18.169 M591.295,416.639l-4.441-36.742 M586.854,379.897l-9.286-35.531
		 M577.567,344.366l-13.324-34.319 M564.243,310.047l-17.765-31.897 M546.478,278.15l-21.803-29.878 M524.675,248.272
		l-25.033-26.648 M499.642,221.624l-28.263-23.418 M471.379,198.206l-31.089-19.784 M440.29,178.422l-33.108-15.747
		 M407.181,162.675l-35.127-11.305 M372.055,151.37l-36.338-6.864 M335.716,144.506l-36.338-2.423 M299.378,142.083l-36.742,2.423
		 M262.636,144.506l-35.934,6.864 M226.702,151.37l-35.127,11.305 M191.575,162.675l-33.108,15.747 M158.467,178.422l-31.089,19.784
		 M127.377,198.206l-28.263,23.418 M99.114,221.624l-25.033,26.648 M74.081,248.272L52.278,278.15 M52.278,278.15l-17.765,31.897
		 M34.513,310.047l-13.324,34.319 M21.189,344.366l-9.286,35.531 M11.903,379.897l-4.845,36.742 M7.057,416.639v36.338
		 M7.057,452.977l4.845,36.742 M11.903,489.719l9.286,35.531 M21.189,525.25l13.324,33.916 M34.513,559.165l17.765,32.301
		 M52.278,591.466l21.803,29.878 M74.081,621.344l25.033,26.648 M99.114,647.992l28.263,23.418 M127.377,671.41l31.089,19.784
		 M158.467,691.194l33.108,15.747 M191.575,706.941l35.127,11.305 M226.702,718.246l35.934,6.864 M262.636,725.11l36.742,2.019
		 M299.378,727.129l36.338-2.019 M335.716,725.11l36.338-6.864 M372.055,718.246l35.127-11.305 M407.181,706.941l33.108-15.747
		 M440.29,691.194l31.089-19.784 M471.379,671.41l28.263-23.418 M499.642,647.992l25.033-26.648 M524.675,621.344l21.803-29.878
		 M546.478,591.466l17.765-32.301 M564.243,559.165l13.324-33.916 M577.567,525.25l9.286-35.531 M586.854,489.719l4.441-36.742
		 M591.295,452.977l0.404-18.169"/>
	<path id="path16" fill="#CC0000" d="M577.256,434.711c0.458-140.07-104.324-258.116-243.062-275.767
		C175.517,138.811,31.524,257.368,22.089,417.35C11.713,577.413,139.266,712.786,299.471,712.497
		C452.434,712.948,577.882,587.789,577.256,434.711"/>
	<path id="path18" fill="#FFFEFE" d="M504.088,434.636c0.31-102.696-77.178-190.876-179.268-203.09
		c-116.726-15.02-222.787,72.737-229.738,190.17c-7.436,118.449,86.054,217.06,204.301,217.625
		C412.967,638.44,503.57,548.658,504.088,434.636"/>
	<rect x="40.258" y="317.364" fill="none" width="537" height="421.764"/>
	<g enable-background="new    ">
		<path d="M261.569,388.641c-10.344,16.062-19.527,33.222-27.555,51.479c-8.033,18.264-14.577,37.074-19.635,56.431
			c-5.063,19.361-8.142,38.172-9.24,56.43h-31.35c1.32-19.8,4.563-39.105,9.735-57.915c5.167-18.81,11.823-36.847,19.965-54.12
			c8.137-17.268,17.542-33.603,28.215-49.004c10.668-15.396,22.162-29.587,34.485-42.57h-122.76v-26.399h151.47v24.09
			C283.018,358.724,271.907,372.584,261.569,388.641z"/>
	</g>
	<g enable-background="new    ">
		<path d="M321.628,411.41c0.438-9.239,1.537-18.258,3.3-27.06c1.759-8.797,4.29-17.16,7.591-25.08
			c3.3-7.92,7.807-14.85,13.529-20.79c5.719-5.94,12.922-10.668,21.615-14.19c8.688-3.517,19.083-5.279,31.186-5.279
			c12.096,0,22.491,1.763,31.185,5.279c8.688,3.522,15.892,8.25,21.615,14.19c5.718,5.94,10.229,12.87,13.529,20.79
			c3.301,7.92,5.827,16.283,7.591,25.08c1.758,8.802,2.856,17.82,3.3,27.06c0.438,9.24,0.66,18.15,0.66,26.73
			c0,8.58-0.222,17.49-0.66,26.729c-0.443,9.24-1.542,18.264-3.3,27.061c-1.764,8.802-4.29,17.108-7.591,24.915
			c-3.3,7.812-7.812,14.685-13.529,20.625c-5.724,5.939-12.87,10.616-21.45,14.024s-19.032,5.115-31.35,5.115
			c-12.103,0-22.497-1.707-31.186-5.115c-8.693-3.408-15.896-8.085-21.615-14.024c-5.723-5.94-10.229-12.813-13.529-20.625
			c-3.301-7.807-5.832-16.113-7.591-24.915c-1.763-8.797-2.861-17.82-3.3-27.061c-0.443-9.239-0.66-18.149-0.66-26.729
			C320.968,429.561,321.185,420.65,321.628,411.41z M351.493,467.345c0.547,10.89,2.31,21.12,5.28,30.689
			c2.97,9.57,7.755,17.655,14.354,24.255c6.601,6.601,15.84,9.9,27.721,9.9c11.88,0,21.119-3.3,27.72-9.9
			c6.6-6.6,11.385-14.685,14.354-24.255c2.971-9.569,4.729-19.8,5.28-30.689c0.547-10.891,0.825-20.733,0.825-29.535
			c0-5.718-0.057-12.044-0.165-18.974c-0.113-6.931-0.66-13.86-1.65-20.79c-0.989-6.931-2.423-13.695-4.29-20.296
			c-1.871-6.6-4.62-12.375-8.25-17.324c-3.63-4.95-8.198-8.962-13.694-12.045c-5.502-3.079-12.21-4.62-20.13-4.62
			c-7.921,0-14.634,1.541-20.131,4.62c-5.501,3.083-10.064,7.095-13.694,12.045c-3.63,4.949-6.384,10.725-8.25,17.324
			c-1.872,6.601-3.3,13.365-4.29,20.296c-0.99,6.93-1.542,13.859-1.65,20.79c-0.113,6.93-0.165,13.256-0.165,18.974
			C350.668,446.612,350.942,456.455,351.493,467.345z"/>
	</g>
</g>
</svg>
