<?xml version="1.0" encoding="utf-8"?>
<!-- Generator: Adobe Illustrator 17.0.0, SVG Export Plug-In . SVG Version: 6.00 Build 0)  -->
<!DOCTYPE svg PUBLIC "-//W3C//DTD SVG 1.1//EN" "http://www.w3.org/Graphics/SVG/1.1/DTD/svg11.dtd">
<svg version="1.1" id="svg1961" xmlns:svg="http://www.w3.org/2000/svg"
	 xmlns="http://www.w3.org/2000/svg" xmlns:xlink="http://www.w3.org/1999/xlink" x="0px" y="0px" width="600px" height="600px"
	 viewBox="0 0 600 600" enable-background="new 0 0 600 600" xml:space="preserve">
<g id="layer1" transform="translate(0.62188,-134.606)">
	<path id="path10" fill="#FFFEFE" stroke="#000000" stroke-width="1.1739" d="M591.953,434.747
		c1.144-146.88-110.502-272.483-255.982-290.302C168.296,123.45,18.637,248.238,7.311,416.578
		c-9.899,167.923,123.752,311.257,292.321,310.49C460.355,728.164,592.982,595.362,591.953,434.747"/>
	<path id="path14" d="M591.699,434.808l-0.404-18.169 M591.295,416.639l-4.441-36.742 M586.854,379.897l-9.286-35.531
		 M577.567,344.366l-13.324-34.319 M564.243,310.047l-17.765-31.897 M546.478,278.15l-21.803-29.878 M524.675,248.272
		l-25.033-26.648 M499.642,221.624l-28.263-23.418 M471.379,198.206l-31.089-19.784 M440.29,178.422l-33.108-15.747
		 M407.181,162.675l-35.127-11.305 M372.055,151.37l-36.338-6.864 M335.716,144.506l-36.338-2.423 M299.378,142.083l-36.742,2.423
		 M262.636,144.506l-35.934,6.864 M226.702,151.37l-35.127,11.305 M191.575,162.675l-33.108,15.747 M158.467,178.422l-31.089,19.784
		 M127.377,198.206l-28.263,23.418 M99.114,221.624l-25.033,26.648 M74.081,248.272L52.278,278.15 M52.278,278.15l-17.765,31.897
		 M34.513,310.047l-13.324,34.319 M21.189,344.366l-9.286,35.531 M11.903,379.897l-4.845,36.742 M7.057,416.639v36.338
		 M7.057,452.977l4.845,36.742 M11.903,489.719l9.286,35.531 M21.189,525.25l13.324,33.916 M34.513,559.165l17.765,32.301
		 M52.278,591.466l21.803,29.878 M74.081,621.344l25.033,26.648 M99.114,647.992l28.263,23.418 M127.377,671.41l31.089,19.784
		 M158.467,691.194l33.108,15.747 M191.575,706.941l35.127,11.305 M226.702,718.246l35.934,6.864 M262.636,725.11l36.742,2.019
		 M299.378,727.129l36.338-2.019 M335.716,725.11l36.338-6.864 M372.055,718.246l35.127-11.305 M407.181,706.941l33.108-15.747
		 M440.29,691.194l31.089-19.784 M471.379,671.41l28.263-23.418 M499.642,647.992l25.033-26.648 M524.675,621.344l21.803-29.878
		 M546.478,591.466l17.765-32.301 M564.243,559.165l13.324-33.916 M577.567,525.25l9.286-35.531 M586.854,489.719l4.441-36.742
		 M591.295,452.977l0.404-18.169"/>
	<path id="path16" fill="#CC0000" d="M577.256,434.711c0.458-140.07-104.324-258.116-243.062-275.767
		C175.517,138.811,31.524,257.368,22.089,417.35C11.713,577.413,139.266,712.786,299.471,712.497
		C452.434,712.948,577.882,587.789,577.256,434.711"/>
	<path id="path18" fill="#FFFEFE" d="M504.088,434.636c0.31-102.696-77.178-190.876-179.268-203.09
		c-116.726-15.02-222.787,72.737-229.738,190.17c-7.436,118.449,86.054,217.06,204.301,217.625
		C412.967,638.44,503.57,548.658,504.088,434.636"/>
	<rect x="30.878" y="305.364" fill="none" width="537" height="421.764"/>
	<g enable-background="new    ">
		<path d="M133.478,343.336c3.965-7.815,9.33-14.405,16.1-19.775c6.765-5.364,14.525-9.45,23.275-12.25s17.904-4.2,27.475-4.2
			c13.53,0,25.08,1.811,34.65,5.426c9.564,3.62,17.325,8.399,23.275,14.35c5.95,5.95,10.325,12.721,13.125,20.3
			c2.8,7.585,4.2,15.346,4.2,23.275c0,11.2-3.095,21.41-9.275,30.625c-6.185,9.22-14.525,16.16-25.025,20.825
			c14.93,4.67,26.015,12.31,33.25,22.924c7.229,10.62,10.85,23.625,10.85,39.024c0,12.136-2.16,22.871-6.475,32.2
			c-4.32,9.335-10.15,17.21-17.5,23.625c-7.35,6.421-16.045,11.261-26.075,14.525c-10.035,3.265-20.77,4.899-32.2,4.899
			c-11.9,0-22.985-1.52-33.25-4.55c-10.271-3.029-19.195-7.7-26.775-14c-7.585-6.3-13.535-14.175-17.85-23.625
			c-4.32-9.45-6.475-20.475-6.475-33.075c0-14.699,3.729-27.475,11.2-38.324c7.465-10.85,18.2-18.725,32.2-23.625
			c-10.5-4.2-18.9-11.025-25.2-20.476c-6.3-9.45-9.45-19.774-9.45-30.975C127.528,360.196,129.508,351.156,133.478,343.336z
			 M165.153,520.435c9.915,8.521,22.575,12.775,37.975,12.775c7.465,0,14.29-1.226,20.475-3.675c6.18-2.45,11.55-5.83,16.1-10.15
			c4.55-4.314,8.05-9.39,10.5-15.225c2.45-5.83,3.675-12.25,3.675-19.25c0-6.766-1.345-13.005-4.025-18.726
			c-2.686-5.715-6.36-10.675-11.025-14.875c-4.67-4.2-10.095-7.524-16.275-9.975c-6.185-2.45-12.775-3.675-19.775-3.675
			c-7.235,0-14.06,1.109-20.475,3.324c-6.42,2.221-12.02,5.426-16.8,9.625c-4.785,4.2-8.521,9.221-11.2,15.051
			c-2.685,5.835-4.025,12.37-4.025,19.6C150.278,500.196,155.233,511.92,165.153,520.435z M162.528,389.186
			c2.33,5.021,5.479,9.16,9.45,12.425c3.965,3.271,8.629,5.721,14,7.351c5.365,1.635,11.08,2.45,17.15,2.45
			c11.9,0,21.7-3.5,29.4-10.5s11.55-16.801,11.55-29.4s-3.91-22.104-11.725-28.525c-7.82-6.414-17.795-9.625-29.925-9.625
			c-5.835,0-11.435,0.82-16.8,2.45c-5.371,1.636-9.975,4.085-13.825,7.351c-3.85,3.27-6.945,7.234-9.275,11.899
			c-2.335,4.671-3.5,10.15-3.5,16.45C159.028,378.281,160.193,384.171,162.528,389.186z"/>
		<path d="M314.778,405.11c0.465-9.8,1.63-19.364,3.5-28.699c1.865-9.33,4.551-18.2,8.051-26.601c3.5-8.399,8.279-15.75,14.35-22.05
			c6.064-6.3,13.705-11.314,22.925-15.05c9.215-3.729,20.24-5.601,33.075-5.601c12.83,0,23.854,1.871,33.074,5.601
			c9.215,3.735,16.855,8.75,22.926,15.05c6.064,6.3,10.85,13.65,14.35,22.05c3.5,8.4,6.18,17.271,8.051,26.601
			c1.863,9.335,3.029,18.899,3.5,28.699c0.465,9.801,0.699,19.25,0.699,28.351c0,9.099-0.234,18.549-0.699,28.349
			c-0.471,9.8-1.637,19.37-3.5,28.7c-1.871,9.335-4.551,18.146-8.051,26.425c-3.5,8.285-8.285,15.575-14.35,21.875
			c-6.07,6.3-13.65,11.261-22.75,14.875c-9.1,3.615-20.186,5.425-33.25,5.425c-12.835,0-23.86-1.81-33.075-5.425
			c-9.22-3.614-16.86-8.575-22.925-14.875c-6.07-6.3-10.85-13.59-14.35-21.875c-3.5-8.279-6.186-17.09-8.051-26.425
			c-1.87-9.33-3.035-18.9-3.5-28.7c-0.47-9.8-0.699-19.25-0.699-28.349C314.078,424.36,314.308,414.911,314.778,405.11z
			 M346.453,464.435c0.579,11.55,2.449,22.4,5.6,32.55c3.15,10.15,8.225,18.726,15.225,25.726s16.801,10.5,29.4,10.5
			s22.4-3.5,29.4-10.5s12.074-15.575,15.225-25.726c3.15-10.149,5.014-21,5.6-32.55c0.58-11.55,0.875-21.989,0.875-31.325
			c0-6.064-0.061-12.774-0.176-20.125c-0.119-7.35-0.699-14.699-1.75-22.05c-1.049-7.35-2.57-14.524-4.549-21.524
			c-1.986-7-4.9-13.125-8.75-18.375s-8.695-9.505-14.525-12.775c-5.836-3.265-12.949-4.9-21.35-4.9s-15.521,1.636-21.35,4.9
			c-5.836,3.271-10.676,7.525-14.525,12.775s-6.771,11.375-8.75,18.375c-1.985,7-3.5,14.175-4.55,21.524
			c-1.05,7.351-1.636,14.7-1.75,22.05c-0.12,7.351-0.175,14.061-0.175,20.125C345.578,442.446,345.867,452.885,346.453,464.435z"/>
	</g>
</g>
</svg>
