<?xml version="1.0" encoding="UTF-8" standalone="no"?>
<!-- Created with Inkscape (http://www.inkscape.org/) -->

<svg
   xmlns:dc="http://purl.org/dc/elements/1.1/"
   xmlns:cc="http://creativecommons.org/ns#"
   xmlns:rdf="http://www.w3.org/1999/02/22-rdf-syntax-ns#"
   xmlns:svg="http://www.w3.org/2000/svg"
   xmlns="http://www.w3.org/2000/svg"
   version="1.0"
   width="960"
   height="960"
   id="svg10804">
  <metadata
     id="metadata3039">
    <rdf:RDF>
      <cc:Work
         rdf:about="">
        <dc:format>image/svg+xml</dc:format>
        <dc:type
           rdf:resource="http://purl.org/dc/dcmitype/StillImage" />
        <dc:title></dc:title>
      </cc:Work>
    </rdf:RDF>
  </metadata>
  <defs
     id="defs10806" />
  <g
     transform="matrix(-1,0,0,1,1405.342,578.6941)"
     id="layer1">
    <path
       d="m 445.342,-98.6941 c 0,-265.0955 214.9045,-480 480,-480 265.0955,0 480,214.9045 480,480 0,265.0955 -214.9045,480 -480,480 -265.0955,0 -480,-214.9045 -480,-480"
       id="path10498"
       style="fill:#176fc1;fill-rule:nonzero;stroke:none" />
    <path
       d="m 1007.858,-393.30314 -0.055,0.0415 c -4.0164,-2.04974 -8.5452,-3.22696 -13.36486,-3.22696 -16.23175,0 -29.38889,13.15714 -29.38889,29.37504 0,3.90559 0.77558,7.60344 2.14669,11.01044 l 19.29252,59.87189 -27.74079,0 c -164.42264,0 -297.7252,133.28871 -297.7252,297.725204 l 0,225.000866 132.23614,0 0,-225.000866 c 0,-91.407467 74.09545,-165.502914 165.48906,-165.502914 l 27.62999,0 -19.18172,59.49795 c -1.37111,3.40701 -2.14669,7.118704 -2.14669,11.010446 0,16.23175 13.15714,29.388886 29.38889,29.388886 4.81966,0 9.34846,-1.177218 13.36486,-3.24081 l 0.055,0.04155 279.236,-162.996132 -279.236,-162.99614"
       id="path10500"
       style="fill:#ffffff;fill-rule:nonzero;stroke:none" />
  </g>
</svg>
