<?xml version="1.0" encoding="utf-8"?>
<!-- Generator: Adobe Illustrator 17.0.0, SVG Export Plug-In . SVG Version: 6.00 Build 0)  -->
<!DOCTYPE svg PUBLIC "-//W3C//DTD SVG 1.1//EN" "http://www.w3.org/Graphics/SVG/1.1/DTD/svg11.dtd">
<svg version="1.1" id="svg1961" xmlns:svg="http://www.w3.org/2000/svg"
	 xmlns="http://www.w3.org/2000/svg" xmlns:xlink="http://www.w3.org/1999/xlink" x="0px" y="0px" width="600px" height="600px"
	 viewBox="0 0 600 600" enable-background="new 0 0 600 600" xml:space="preserve">
<g id="layer1" transform="translate(0.62188,-134.606)">
	<path id="path10" fill="#FFFEFE" stroke="#000000" stroke-width="1.1739" d="M591.953,434.747
		c1.144-146.88-110.502-272.483-255.982-290.302C168.296,123.45,18.637,248.238,7.311,416.578
		c-9.899,167.923,123.752,311.257,292.321,310.49C460.355,728.164,592.982,595.362,591.953,434.747"/>
	<path id="path14" d="M591.699,434.808l-0.404-18.169 M591.295,416.639l-4.441-36.742 M586.854,379.897l-9.286-35.531
		 M577.567,344.366l-13.324-34.319 M564.243,310.047l-17.765-31.897 M546.478,278.15l-21.803-29.878 M524.675,248.272
		l-25.033-26.648 M499.642,221.624l-28.263-23.418 M471.379,198.206l-31.089-19.784 M440.29,178.422l-33.108-15.747
		 M407.181,162.675l-35.127-11.305 M372.055,151.37l-36.338-6.864 M335.716,144.506l-36.338-2.423 M299.378,142.083l-36.742,2.423
		 M262.636,144.506l-35.934,6.864 M226.702,151.37l-35.127,11.305 M191.575,162.675l-33.108,15.747 M158.467,178.422l-31.089,19.784
		 M127.377,198.206l-28.263,23.418 M99.114,221.624l-25.033,26.648 M74.081,248.272L52.278,278.15 M52.278,278.15l-17.765,31.897
		 M34.513,310.047l-13.324,34.319 M21.189,344.366l-9.286,35.531 M11.903,379.897l-4.845,36.742 M7.057,416.639v36.338
		 M7.057,452.977l4.845,36.742 M11.903,489.719l9.286,35.531 M21.189,525.25l13.324,33.916 M34.513,559.165l17.765,32.301
		 M52.278,591.466l21.803,29.878 M74.081,621.344l25.033,26.648 M99.114,647.992l28.263,23.418 M127.377,671.41l31.089,19.784
		 M158.467,691.194l33.108,15.747 M191.575,706.941l35.127,11.305 M226.702,718.246l35.934,6.864 M262.636,725.11l36.742,2.019
		 M299.378,727.129l36.338-2.019 M335.716,725.11l36.338-6.864 M372.055,718.246l35.127-11.305 M407.181,706.941l33.108-15.747
		 M440.29,691.194l31.089-19.784 M471.379,671.41l28.263-23.418 M499.642,647.992l25.033-26.648 M524.675,621.344l21.803-29.878
		 M546.478,591.466l17.765-32.301 M564.243,559.165l13.324-33.916 M577.567,525.25l9.286-35.531 M586.854,489.719l4.441-36.742
		 M591.295,452.977l0.404-18.169"/>
	<path id="path16" fill="#CC0000" d="M577.256,434.711c0.458-140.07-104.324-258.116-243.062-275.767
		C175.517,138.811,31.524,257.368,22.089,417.35C11.713,577.413,139.266,712.786,299.471,712.497
		C452.434,712.948,577.882,587.789,577.256,434.711"/>
	<path id="path18" fill="#FFFEFE" d="M504.088,434.636c0.31-102.696-77.178-190.876-179.268-203.09
		c-116.726-15.02-222.787,72.737-229.738,190.17c-7.436,118.449,86.054,217.06,204.301,217.625
		C412.967,638.44,503.57,548.658,504.088,434.636"/>
	<rect x="30.878" y="305.364" fill="none" width="537" height="421.764"/>
	<text transform="matrix(1 0 0 1 104.778 555.2607)" font-family="'HelveticaNeue'" font-size="350">40</text>
</g>
</svg>
